<svg xmlns="http://www.w3.org/2000/svg" xmlns:xlink="http://www.w3.org/1999/xlink" id="processonSvg1000" viewBox="12.0 299.0 1076.4649692111548 795.4864501953125" width="1076.4649692111548" height="795.4864501953125"><defs id="ProcessOnDefs1001"><marker id="ProcessOnMarker1081" markerUnits="userSpaceOnUse" orient="auto" markerWidth="16.23606797749979" markerHeight="10.550836550532098" viewBox="-1.0 -1.3763819204711736 16.23606797749979 10.550836550532098" refX="-1.0" refY="3.8990363547948754"><path id="ProcessOnPath1082" d="M12.0 3.8990363547948754L0.0 7.798072709589751V0.0Z" stroke="#323232" stroke-width="2.0" fill="#323232" transform="matrix(1.0,0.0,0.0,1.0,0.0,0.0)"/></marker><marker id="ProcessOnMarker1088" markerUnits="userSpaceOnUse" orient="auto" markerWidth="16.23606797749979" markerHeight="10.550836550532098" viewBox="-1.0 -1.3763819204711736 16.23606797749979 10.550836550532098" refX="-1.0" refY="3.8990363547948754"><path id="ProcessOnPath1089" d="M12.0 3.8990363547948754L0.0 7.798072709589751V0.0Z" stroke="#323232" stroke-width="2.0" fill="#323232" transform="matrix(1.0,0.0,0.0,1.0,0.0,0.0)"/></marker><marker id="ProcessOnMarker1095" markerUnits="userSpaceOnUse" orient="auto" markerWidth="16.23606797749979" markerHeight="10.550836550532098" viewBox="-1.0 -1.3763819204711736 16.23606797749979 10.550836550532098" refX="-1.0" refY="3.8990363547948754"><path id="ProcessOnPath1096" d="M12.0 3.8990363547948754L0.0 7.798072709589751V0.0Z" stroke="#323232" stroke-width="2.0" fill="#323232" transform="matrix(1.0,0.0,0.0,1.0,0.0,0.0)"/></marker><marker id="ProcessOnMarker1102" markerUnits="userSpaceOnUse" orient="auto" markerWidth="16.23606797749979" markerHeight="10.550836550532098" viewBox="-1.0 -1.3763819204711736 16.23606797749979 10.550836550532098" refX="-1.0" refY="3.8990363547948754"><path id="ProcessOnPath1103" d="M12.0 3.8990363547948754L0.0 7.798072709589751V0.0Z" stroke="#323232" stroke-width="2.0" fill="#323232" transform="matrix(1.0,0.0,0.0,1.0,0.0,0.0)"/></marker><marker id="ProcessOnMarker1112" markerUnits="userSpaceOnUse" orient="auto" markerWidth="16.23606797749979" markerHeight="10.550836550532098" viewBox="-1.0 -1.3763819204711736 16.23606797749979 10.550836550532098" refX="-1.0" refY="3.8990363547948754"><path id="ProcessOnPath1113" d="M12.0 3.8990363547948754L0.0 7.798072709589751V0.0Z" stroke="#323232" stroke-width="2.0" fill="#323232" transform="matrix(1.0,0.0,0.0,1.0,0.0,0.0)"/></marker><marker id="ProcessOnMarker1116" markerUnits="userSpaceOnUse" orient="auto" markerWidth="16.23606797749979" markerHeight="10.550836550532098" viewBox="-1.0 -1.3763819204711736 16.23606797749979 10.550836550532098" refX="-1.0" refY="3.8990363547948754"><path id="ProcessOnPath1117" d="M12.0 3.8990363547948754L0.0 7.798072709589751V0.0Z" stroke="#323232" stroke-width="2.0" fill="#323232" transform="matrix(1.0,0.0,0.0,1.0,0.0,0.0)"/></marker><marker id="ProcessOnMarker1130" markerUnits="userSpaceOnUse" orient="auto" markerWidth="16.23606797749979" markerHeight="10.550836550532098" viewBox="-1.0 -1.3763819204711736 16.23606797749979 10.550836550532098" refX="-1.0" refY="3.8990363547948754"><path id="ProcessOnPath1131" d="M12.0 3.8990363547948754L0.0 7.798072709589751V0.0Z" stroke="#323232" stroke-width="2.0" fill="#323232" transform="matrix(1.0,0.0,0.0,1.0,0.0,0.0)"/></marker><marker id="ProcessOnMarker1134" markerUnits="userSpaceOnUse" orient="auto" markerWidth="16.23606797749979" markerHeight="10.550836550532098" viewBox="-1.0 -1.3763819204711736 16.23606797749979 10.550836550532098" refX="-1.0" refY="3.8990363547948754"><path id="ProcessOnPath1135" d="M12.0 3.8990363547948754L0.0 7.798072709589751V0.0Z" stroke="#323232" stroke-width="2.0" fill="#323232" transform="matrix(1.0,0.0,0.0,1.0,0.0,0.0)"/></marker><marker id="ProcessOnMarker1138" markerUnits="userSpaceOnUse" orient="auto" markerWidth="16.23606797749979" markerHeight="10.550836550532098" viewBox="-1.0 -1.3763819204711736 16.23606797749979 10.550836550532098" refX="-1.0" refY="3.8990363547948754"><path id="ProcessOnPath1139" d="M12.0 3.8990363547948754L0.0 7.798072709589751V0.0Z" stroke="#323232" stroke-width="2.0" fill="#323232" transform="matrix(1.0,0.0,0.0,1.0,0.0,0.0)"/></marker><marker id="ProcessOnMarker1142" markerUnits="userSpaceOnUse" orient="auto" markerWidth="16.23606797749979" markerHeight="10.550836550532098" viewBox="-1.0 -1.3763819204711736 16.23606797749979 10.550836550532098" refX="-1.0" refY="3.8990363547948754"><path id="ProcessOnPath1143" d="M12.0 3.8990363547948754L0.0 7.798072709589751V0.0Z" stroke="#323232" stroke-width="2.0" fill="#323232" transform="matrix(1.0,0.0,0.0,1.0,0.0,0.0)"/></marker><marker id="ProcessOnMarker1146" markerUnits="userSpaceOnUse" orient="auto" markerWidth="16.23606797749979" markerHeight="10.550836550532098" viewBox="-1.0 -1.3763819204711736 16.23606797749979 10.550836550532098" refX="-1.0" refY="3.8990363547948754"><path id="ProcessOnPath1147" d="M12.0 3.8990363547948754L0.0 7.798072709589751V0.0Z" stroke="#323232" stroke-width="2.0" fill="#323232" transform="matrix(1.0,0.0,0.0,1.0,0.0,0.0)"/></marker><marker id="ProcessOnMarker1154" markerUnits="userSpaceOnUse" orient="auto" markerWidth="16.23606797749979" markerHeight="10.550836550532098" viewBox="-1.0 -1.3763819204711736 16.23606797749979 10.550836550532098" refX="-1.0" refY="3.8990363547948754"><path id="ProcessOnPath1155" d="M12.0 3.8990363547948754L0.0 7.798072709589751V0.0Z" stroke="#323232" stroke-width="2.0" fill="#323232" transform="matrix(1.0,0.0,0.0,1.0,0.0,0.0)"/></marker><marker id="ProcessOnMarker1167" markerUnits="userSpaceOnUse" orient="auto" markerWidth="16.23606797749979" markerHeight="10.550836550532098" viewBox="-1.0 -1.3763819204711736 16.23606797749979 10.550836550532098" refX="-1.0" refY="3.8990363547948754"><path id="ProcessOnPath1168" d="M12.0 3.8990363547948754L0.0 7.798072709589751V0.0Z" stroke="#323232" stroke-width="2.0" fill="#323232" transform="matrix(1.0,0.0,0.0,1.0,0.0,0.0)"/></marker></defs><g id="ProcessOnG1002"><path id="ProcessOnPath1003" d="M12.0 299.0H1088.4649692111548V1094.4864501953125H12.0V299.0Z" fill="none"/><g id="ProcessOnG1004"><g id="ProcessOnG1005" transform="matrix(1.0,0.0,0.0,1.0,124.0,491.0)" opacity="1.0"><path id="ProcessOnPath1006" d="M0.0 0.0L175.57608032226562 0.0L175.57608032226562 459.0L0.0 459.0Z" stroke="#323232" stroke-width="2.0" stroke-dasharray="none" fill="#ffffff"/><g id="ProcessOnG1007" transform="matrix(1.0,0.0,0.0,1.0,10.0,0.0)"><text id="ProcessOnText1008" fill="#323232" font-weight="bold" font-style="normal" text-decoration="none" font-family="Arial,宋体" text-anchor="middle" font-size="17" x="76.78804016113281" y="17.425">PORXY</text></g></g><g id="ProcessOnG1009" transform="matrix(1.0,0.0,0.0,1.0,156.0,660.5)" opacity="1.0"><path id="ProcessOnPath1010" d="M0.0 0.0L100.0 0.0L100.0 56.0L0.0 56.0Z" stroke="#323232" stroke-width="2.0" stroke-dasharray="none" fill="#ffffff"/><g id="ProcessOnG1011" transform="matrix(1.0,0.0,0.0,1.0,10.0,19.875)"><text id="ProcessOnText1012" fill="#323232" font-weight="normal" font-style="normal" text-decoration="none" font-family="Arial,宋体" text-anchor="middle" font-size="13" x="39.0" y="13.325">Nginx</text></g></g><g id="ProcessOnG1013" transform="matrix(1.0,0.0,0.0,1.0,156.0,741.0)" opacity="1.0"><path id="ProcessOnPath1014" d="M0.0 0.0L100.0 0.0L100.0 60.0L0.0 60.0Z" stroke="#323232" stroke-width="2.0" stroke-dasharray="none" fill="#ffffff"/><g id="ProcessOnG1015" transform="matrix(1.0,0.0,0.0,1.0,10.0,21.875)"><text id="ProcessOnText1016" fill="#323232" font-weight="normal" font-style="normal" text-decoration="none" font-family="Arial,宋体" text-anchor="middle" font-size="13" x="39.0" y="13.325">Nginx</text></g></g><g id="ProcessOnG1017" transform="matrix(1.0,0.0,0.0,1.0,358.5,491.0)" opacity="1.0"><path id="ProcessOnPath1018" d="M0.0 0.0L209.0 0.0L209.0 459.0L0.0 459.0Z" stroke="#323232" stroke-width="2.0" stroke-dasharray="none" fill="#ccccff"/><g id="ProcessOnG1019" transform="matrix(1.0,0.0,0.0,1.0,10.0,0.0)"><text id="ProcessOnText1020" fill="#323232" font-weight="bold" font-style="normal" text-decoration="none" font-family="Arial,宋体" text-anchor="middle" font-size="23" x="93.5" y="23.575000000000003">WEB层</text><text id="ProcessOnText1021" fill="#323232" font-weight="bold" font-style="normal" text-decoration="none" font-family="Arial,宋体" text-anchor="middle" font-size="23" x="93.5" y="52.325"></text></g></g><g id="ProcessOnG1022" transform="matrix(1.0,0.0,0.0,1.0,392.5,564.0)" opacity="1.0"><path id="ProcessOnPath1023" d="M0.0 0.0L144.0 0.0L144.0 41.0L0.0 41.0Z" stroke="#323232" stroke-width="2.0" stroke-dasharray="none" fill="#ffffff"/><g id="ProcessOnG1024" transform="matrix(1.0,0.0,0.0,1.0,10.0,12.375)"><text id="ProcessOnText1025" fill="#323232" font-weight="normal" font-style="normal" text-decoration="none" font-family="Arial,宋体" text-anchor="middle" font-size="13" x="61.0" y="13.325">payment-web</text></g></g><g id="ProcessOnG1026" transform="matrix(1.0,0.0,0.0,1.0,392.5,635.0)" opacity="1.0"><path id="ProcessOnPath1027" d="M0.0 0.0L144.0 0.0L144.0 41.0L0.0 41.0Z" stroke="#323232" stroke-width="2.0" stroke-dasharray="none" fill="#ffffff"/><g id="ProcessOnG1028" transform="matrix(1.0,0.0,0.0,1.0,10.0,12.375)"><text id="ProcessOnText1029" fill="#323232" font-weight="normal" font-style="normal" text-decoration="none" font-family="Arial,宋体" text-anchor="middle" font-size="13" x="61.0" y="13.325">query-web</text></g></g><g id="ProcessOnG1030" transform="matrix(1.0,0.0,0.0,1.0,392.5,700.0)" opacity="1.0"><path id="ProcessOnPath1031" d="M0.0 0.0L144.0 0.0L144.0 41.0L0.0 41.0Z" stroke="#323232" stroke-width="2.0" stroke-dasharray="none" fill="#ffffff"/><g id="ProcessOnG1032" transform="matrix(1.0,0.0,0.0,1.0,10.0,12.375)"><text id="ProcessOnText1033" fill="#323232" font-weight="normal" font-style="normal" text-decoration="none" font-family="Arial,宋体" text-anchor="middle" font-size="13" x="61.0" y="13.325">notify-web</text></g></g><g id="ProcessOnG1034" transform="matrix(1.0,0.0,0.0,1.0,389.5,773.0)" opacity="1.0"><path id="ProcessOnPath1035" d="M0.0 0.0L144.0 0.0L144.0 41.0L0.0 41.0Z" stroke="#323232" stroke-width="2.0" stroke-dasharray="none" fill="#ffffff"/><g id="ProcessOnG1036" transform="matrix(1.0,0.0,0.0,1.0,10.0,12.375)"><text id="ProcessOnText1037" fill="#323232" font-weight="normal" font-style="normal" text-decoration="none" font-family="Arial,宋体" text-anchor="middle" font-size="13" x="61.0" y="13.325">netpay-web</text></g></g><g id="ProcessOnG1038" transform="matrix(1.0,0.0,0.0,1.0,391.0,852.0)" opacity="1.0"><path id="ProcessOnPath1039" d="M0.0 0.0L144.0 0.0L144.0 41.0L0.0 41.0Z" stroke="#323232" stroke-width="2.0" stroke-dasharray="none" fill="#ff3333"/><g id="ProcessOnG1040" transform="matrix(1.0,0.0,0.0,1.0,10.0,12.375)"><text id="ProcessOnText1041" fill="#323232" font-weight="normal" font-style="normal" text-decoration="none" font-family="Arial,宋体" text-anchor="middle" font-size="13" x="61.0" y="13.325">qrcode-web</text></g></g><g id="ProcessOnG1042" transform="matrix(1.0,0.0,0.0,1.0,658.0,491.0)" opacity="1.0"><path id="ProcessOnPath1043" d="M0.0 0.0L208.57608032226562 0.0L208.57608032226562 459.0L0.0 459.0Z" stroke="#323232" stroke-width="2.0" stroke-dasharray="none" fill="#ccccff"/><g id="ProcessOnG1044" transform="matrix(1.0,0.0,0.0,1.0,10.0,0.0)"><text id="ProcessOnText1045" fill="#323232" font-weight="bold" font-style="normal" text-decoration="none" font-family="Arial,宋体" text-anchor="middle" font-size="23" x="93.28804016113281" y="23.575000000000003">Service服务</text></g></g><g id="ProcessOnG1046" transform="matrix(1.0,0.0,0.0,1.0,703.0,561.0)" opacity="1.0"><path id="ProcessOnPath1047" d="M0.0 0.0L144.0 0.0L144.0 41.0L0.0 41.0Z" stroke="#323232" stroke-width="2.0" stroke-dasharray="none" fill="#ffffff"/><g id="ProcessOnG1048" transform="matrix(1.0,0.0,0.0,1.0,10.0,12.375)"><text id="ProcessOnText1049" fill="#323232" font-weight="normal" font-style="normal" text-decoration="none" font-family="Arial,宋体" text-anchor="middle" font-size="13" x="61.0" y="13.325">common-service</text></g></g><g id="ProcessOnG1050" transform="matrix(1.0,0.0,0.0,1.0,703.0,610.0)" opacity="1.0"><path id="ProcessOnPath1051" d="M0.0 0.0L144.0 0.0L144.0 41.0L0.0 41.0Z" stroke="#323232" stroke-width="2.0" stroke-dasharray="none" fill="#ffffff"/><g id="ProcessOnG1052" transform="matrix(1.0,0.0,0.0,1.0,10.0,12.375)"><text id="ProcessOnText1053" fill="#323232" font-weight="normal" font-style="normal" text-decoration="none" font-family="Arial,宋体" text-anchor="middle" font-size="13" x="61.0" y="13.325">channel-service</text></g></g><g id="ProcessOnG1054" transform="matrix(1.0,0.0,0.0,1.0,703.0,664.0)" opacity="1.0"><path id="ProcessOnPath1055" d="M0.0 0.0L144.0 0.0L144.0 41.0L0.0 41.0Z" stroke="#323232" stroke-width="2.0" stroke-dasharray="none" fill="#ffffff"/><g id="ProcessOnG1056" transform="matrix(1.0,0.0,0.0,1.0,10.0,12.375)"><text id="ProcessOnText1057" fill="#323232" font-weight="normal" font-style="normal" text-decoration="none" font-family="Arial,宋体" text-anchor="middle" font-size="13" x="61.0" y="13.325">account-service</text></g></g><g id="ProcessOnG1058" transform="matrix(1.0,0.0,0.0,1.0,703.0,719.0)" opacity="1.0"><path id="ProcessOnPath1059" d="M0.0 0.0L144.0 0.0L144.0 41.0L0.0 41.0Z" stroke="#323232" stroke-width="2.0" stroke-dasharray="none" fill="#ffffff"/><g id="ProcessOnG1060" transform="matrix(1.0,0.0,0.0,1.0,10.0,12.375)"><text id="ProcessOnText1061" fill="#323232" font-weight="normal" font-style="normal" text-decoration="none" font-family="Arial,宋体" text-anchor="middle" font-size="13" x="61.0" y="13.325">gateway-service</text></g></g><g id="ProcessOnG1062" transform="matrix(1.0,0.0,0.0,1.0,703.0,771.5)" opacity="1.0"><path id="ProcessOnPath1063" d="M0.0 0.0L144.0 0.0L144.0 41.0L0.0 41.0Z" stroke="#323232" stroke-width="2.0" stroke-dasharray="none" fill="#ffffff"/><g id="ProcessOnG1064" transform="matrix(1.0,0.0,0.0,1.0,10.0,4.25)"><text id="ProcessOnText1065" fill="#323232" font-weight="normal" font-style="normal" text-decoration="none" font-family="Arial,宋体" text-anchor="middle" font-size="13" x="61.0" y="13.325">transaction-servic</text><text id="ProcessOnText1066" fill="#323232" font-weight="normal" font-style="normal" text-decoration="none" font-family="Arial,宋体" text-anchor="middle" font-size="13" x="61.0" y="29.575">e</text></g></g><g id="ProcessOnG1067" transform="matrix(1.0,0.0,0.0,1.0,703.0,823.0)" opacity="1.0"><path id="ProcessOnPath1068" d="M0.0 0.0L144.0 0.0L144.0 41.0L0.0 41.0Z" stroke="#323232" stroke-width="2.0" stroke-dasharray="none" fill="#ffffff"/><g id="ProcessOnG1069" transform="matrix(1.0,0.0,0.0,1.0,10.0,12.375)"><text id="ProcessOnText1070" fill="#323232" font-weight="normal" font-style="normal" text-decoration="none" font-family="Arial,宋体" text-anchor="middle" font-size="13" x="61.0" y="13.325">notify-service</text></g></g><g id="ProcessOnG1071" transform="matrix(1.0,0.0,0.0,1.0,703.0,875.0)" opacity="1.0"><path id="ProcessOnPath1072" d="M0.0 0.0L144.0 0.0L144.0 41.0L0.0 41.0Z" stroke="#323232" stroke-width="2.0" stroke-dasharray="none" fill="#ffffff"/><g id="ProcessOnG1073" transform="matrix(1.0,0.0,0.0,1.0,10.0,12.375)"><text id="ProcessOnText1074" fill="#323232" font-weight="normal" font-style="normal" text-decoration="none" font-family="Arial,宋体" text-anchor="middle" font-size="13" x="61.0" y="13.325">stats-service</text></g></g><g id="ProcessOnG1075" transform="matrix(1.0,0.0,0.0,1.0,545.0,319.0)" opacity="1.0"><path id="ProcessOnPath1076" d="M0.0 0.0L182.0 0.0L182.0 101.0L0.0 101.0Z" stroke="#323232" stroke-width="2.0" stroke-dasharray="none" fill="#ccccff"/><g id="ProcessOnG1077" transform="matrix(1.0,0.0,0.0,1.0,10.0,0.0)"><text id="ProcessOnText1078" fill="#323232" font-weight="bold" font-style="normal" text-decoration="none" font-family="Arial,宋体" text-anchor="middle" font-size="23" x="80.0" y="23.575000000000003">zookeeper集群</text></g></g><g id="ProcessOnG1079"><path id="ProcessOnPath1080" d="M463.0 491.0L463.0 369.5L529.7639320225002 369.5" stroke="#323232" stroke-width="2.0" stroke-dasharray="none" fill="none" marker-end="url(#ProcessOnMarker1081)"/><g id="ProcessOnG1083" transform="matrix(1.0,0.0,0.0,1.0,463.0,388.7430339887499)"><path id="ProcessOnPath1084" d="M0 0H8.0V16.25H0Z" fill="#fff" transform="matrix(1.0,0.0,0.0,1.0,-4.0,0.0)"/><text id="ProcessOnText1085" fill="#323232" font-weight="normal" font-style="normal" text-decoration="none" font-family="Arial,宋体" text-anchor="middle" font-size="13" x="0.0" y="13.325">1</text></g></g><g id="ProcessOnG1086"><path id="ProcessOnPath1087" d="M545.0 369.5L481.5 369.5L481.5 475.7639320225002" stroke="#323232" stroke-width="2.0" stroke-dasharray="none" fill="none" marker-end="url(#ProcessOnMarker1088)"/><g id="ProcessOnG1090" transform="matrix(1.0,0.0,0.0,1.0,481.5,382.75696601125014)"><path id="ProcessOnPath1091" d="M0 0H8.0V16.25H0Z" fill="#fff" transform="matrix(1.0,0.0,0.0,1.0,-4.0,0.0)"/><text id="ProcessOnText1092" fill="#323232" font-weight="normal" font-style="normal" text-decoration="none" font-family="Arial,宋体" text-anchor="middle" font-size="13" x="0.0" y="13.325">2</text></g></g><g id="ProcessOnG1093"><path id="ProcessOnPath1094" d="M762.2880401611328 491.0L762.2880401611328 455.5L636.0 455.5L636.0 435.2360679774998" stroke="#323232" stroke-width="2.0" stroke-dasharray="none" fill="none" marker-end="url(#ProcessOnMarker1095)"/><g id="ProcessOnG1097" transform="matrix(1.0,0.0,0.0,1.0,706.7620540693163,447.375)"><path id="ProcessOnPath1098" d="M0 0H8.0V16.25H0Z" fill="#fff" transform="matrix(1.0,0.0,0.0,1.0,-4.0,0.0)"/><text id="ProcessOnText1099" fill="#323232" font-weight="normal" font-style="normal" text-decoration="none" font-family="Arial,宋体" text-anchor="middle" font-size="13" x="0.0" y="13.325">1</text></g></g><g id="ProcessOnG1100"><path id="ProcessOnPath1101" d="M636.0 420.0L636.0 455.5L739.3255359054706 455.5L739.3255359054706 475.7639320225002" stroke="#323232" stroke-width="2.0" stroke-dasharray="none" fill="none" marker-end="url(#ProcessOnMarker1102)"/><g id="ProcessOnG1104" transform="matrix(1.0,0.0,0.0,1.0,680.0447339639854,447.375)"><path id="ProcessOnPath1105" d="M0 0H8.0V16.25H0Z" fill="#fff" transform="matrix(1.0,0.0,0.0,1.0,-4.0,0.0)"/><text id="ProcessOnText1106" fill="#323232" font-weight="normal" font-style="normal" text-decoration="none" font-family="Arial,宋体" text-anchor="middle" font-size="13" x="0.0" y="13.325">2</text></g></g><g id="ProcessOnG1107" transform="matrix(1.0,0.0,0.0,1.0,32.0,700.0)" opacity="1.0"><path id="ProcessOnPath1108" d="M16.333333333333332 6.375C16.333333333333332 -2.125 32.666666666666664 -2.125 32.666666666666664 6.375C32.666666666666664 14.875 16.333333333333332 14.875 16.333333333333332 6.375M24.5 12.75L24.5 38.25M24.5 38.25L4.083333333333333 51.0M24.5 38.25L44.916666666666664 51.0M0.0 25.5L49.0 25.5" stroke="#323232" stroke-width="2.0" stroke-dasharray="none" fill="#ffffff"/><path id="ProcessOnPath1109" d="M0.0 0.0L49.0 0.0L49.0 51.0L0.0 51.0Z" stroke="#323232" stroke-width="0.0" stroke-dasharray="none" fill="none"/></g><g id="ProcessOnG1110"><path id="ProcessOnPath1111" d="M81.0 725.5L102.5 725.5L102.5 693.0970149253732L108.76393202250021 693.0970149253732" stroke="#323232" stroke-width="2.0" stroke-dasharray="none" fill="none" marker-end="url(#ProcessOnMarker1112)"/></g><g id="ProcessOnG1114"><path id="ProcessOnPath1115" d="M299.5760803222656 720.5L329.0380401611328 720.5L329.0380401611328 720.5L343.2639320225002 720.5" stroke="#323232" stroke-width="2.0" stroke-dasharray="none" fill="none" marker-end="url(#ProcessOnMarker1116)"/></g><g id="ProcessOnG1118" transform="matrix(1.0,0.0,0.0,1.0,951.0,644.0)" opacity="1.0"><path id="ProcessOnPath1119" d="M46.5 72.5C-15.5 72.5 -15.5 0.0 46.5 0.0C108.5 0.0 108.5 72.5 46.5 72.5L93.0 72.5Z" stroke="#323232" stroke-width="2.0" stroke-dasharray="none" fill="#ccccff"/><g id="ProcessOnG1120" transform="matrix(1.0,0.0,0.0,1.0,10.0,17.5)"><text id="ProcessOnText1121" fill="#323232" font-weight="bold" font-style="normal" text-decoration="none" font-family="Arial,宋体" text-anchor="middle" font-size="15" x="35.5" y="15.375">RoketMQ</text><text id="ProcessOnText1122" fill="#323232" font-weight="bold" font-style="normal" text-decoration="none" font-family="Arial,宋体" text-anchor="middle" font-size="15" x="35.5" y="34.125">集群</text></g></g><g id="ProcessOnG1123" transform="matrix(1.0,0.0,0.0,1.0,944.0,763.0)" opacity="1.0"><path id="ProcessOnPath1124" d="M15.0 0.0L88.33333333333333 0.0C103.18181818181819 0.0 103.18181818181819 70.0 88.33333333333333 70.0L15.0 70.0C-5.0 70.0 -5.0 0.0 15.0 0.0ZM88.33333333333333 0.0C73.75 0.0 73.75 70.0 88.33333333333333 70.0C73.75 70.0 73.75 0.0 88.33333333333333 0.0" stroke="#323232" stroke-width="2.0" stroke-dasharray="none" fill="#ffffff"/><g id="ProcessOnG1125" transform="matrix(1.0,0.0,0.0,1.0,0.0,18.75)"><text id="ProcessOnText1126" fill="#323232" font-weight="normal" font-style="normal" text-decoration="none" font-family="Arial,宋体" text-anchor="middle" font-size="13" x="39.0" y="13.325">数据库</text><text id="ProcessOnText1127" fill="#323232" font-weight="normal" font-style="normal" text-decoration="none" font-family="Arial,宋体" text-anchor="middle" font-size="13" x="39.0" y="29.575">(Oracle)</text></g></g><g id="ProcessOnG1128"><path id="ProcessOnPath1129" d="M866.5760803222656 720.5L906.0323322082704 720.5L906.0323322082704 808.738532771757L930.2525161167754 808.738532771757" stroke="#323232" stroke-width="2.0" stroke-dasharray="none" fill="none" marker-end="url(#ProcessOnMarker1130)"/></g><g id="ProcessOnG1132"><path id="ProcessOnPath1133" d="M847.0 792.0L899.0 792.0L899.0 680.25L935.7639320225002 680.25" stroke="#323232" stroke-width="2.0" stroke-dasharray="none" fill="none" marker-end="url(#ProcessOnMarker1134)"/></g><g id="ProcessOnG1136"><path id="ProcessOnPath1137" d="M847.0 843.5L899.0 843.5L899.0 680.25L935.7639320225002 680.25" stroke="#323232" stroke-width="2.0" stroke-dasharray="none" fill="none" marker-end="url(#ProcessOnMarker1138)"/></g><g id="ProcessOnG1140"><path id="ProcessOnPath1141" d="M847.0 895.5L899.0 895.5L899.0 680.25L935.7639320225002 680.25" stroke="#323232" stroke-width="2.0" stroke-dasharray="none" fill="none" marker-end="url(#ProcessOnMarker1142)"/></g><g id="ProcessOnG1144"><path id="ProcessOnPath1145" d="M567.5 720.5L612.75 720.5L612.75 720.5L642.7639320225002 720.5" stroke="#323232" stroke-width="2.0" stroke-dasharray="none" fill="none" marker-end="url(#ProcessOnMarker1146)"/></g><g id="ProcessOnG1148" transform="matrix(1.0,0.0,0.0,1.0,944.0,546.5)" opacity="1.0"><path id="ProcessOnPath1149" d="M15.0 0.0L88.33333333333333 0.0C103.18181818181819 0.0 103.18181818181819 70.0 88.33333333333333 70.0L15.0 70.0C-5.0 70.0 -5.0 0.0 15.0 0.0ZM88.33333333333333 0.0C73.75 0.0 73.75 70.0 88.33333333333333 70.0C73.75 70.0 73.75 0.0 88.33333333333333 0.0" stroke="#323232" stroke-width="2.0" stroke-dasharray="none" fill="#ffffff"/><g id="ProcessOnG1150" transform="matrix(1.0,0.0,0.0,1.0,0.0,26.875)"><text id="ProcessOnText1151" fill="#323232" font-weight="normal" font-style="normal" text-decoration="none" font-family="Arial,宋体" text-anchor="middle" font-size="13" x="39.0" y="13.325">Redis缓存</text></g></g><g id="ProcessOnG1152"><path id="ProcessOnPath1153" d="M866.5760803222656 720.5L905.2880401611328 720.5L905.2880401611328 581.5L928.7639320225002 581.5" stroke="#323232" stroke-width="2.0" stroke-dasharray="none" fill="none" marker-end="url(#ProcessOnMarker1154)"/></g><g id="ProcessOnG1156" transform="matrix(1.0,0.0,0.0,1.0,657.2880401611328,1000.4864501953125)" opacity="1.0"><path id="ProcessOnPath1157" d="M0.0 0.0L210.0 0.0L210.0 74.0L0.0 74.0Z" stroke="#323232" stroke-width="2.0" stroke-dasharray="none" fill="#ccccff"/><g id="ProcessOnG1158" transform="matrix(1.0,0.0,0.0,1.0,10.0,0.0)"><text id="ProcessOnText1159" fill="#323232" font-weight="bold" font-style="normal" text-decoration="none" font-family="Arial,宋体" text-anchor="middle" font-size="17" x="94.0" y="17.425">定时任务</text></g></g><g id="ProcessOnG1160" transform="matrix(1.0,0.0,0.0,1.0,711.2880401611328,1023.4864501953125)" opacity="1.0"><path id="ProcessOnPath1161" d="M0.0 0.0L102.0 0.0L102.0 35.0L0.0 35.0Z" stroke="#323232" stroke-width="2.0" stroke-dasharray="none" fill="#ffffff"/><g id="ProcessOnG1162" transform="matrix(1.0,0.0,0.0,1.0,10.0,1.25)"><text id="ProcessOnText1163" fill="#323232" font-weight="normal" font-style="normal" text-decoration="none" font-family="Arial,宋体" text-anchor="middle" font-size="13" x="40.0" y="13.325">leopard-tas</text><text id="ProcessOnText1164" fill="#323232" font-weight="normal" font-style="normal" text-decoration="none" font-family="Arial,宋体" text-anchor="middle" font-size="13" x="40.0" y="29.575">k</text></g></g><g id="ProcessOnG1165"><path id="ProcessOnPath1166" d="M762.2880401611328 1000.4864501953125L762.2880401611328 975.2432250976562L762.2880401611328 975.2432250976562L762.2880401611328 965.2360679774998" stroke="#323232" stroke-width="2.0" stroke-dasharray="none" fill="none" marker-end="url(#ProcessOnMarker1167)"/></g><g id="ProcessOnG1169" transform="matrix(1.0,0.0,0.0,1.0,864.4649692111547,340.1240933736165)" opacity="1.0"><path id="ProcessOnPath1170" d="M0.0 0.0L204.0 0.0L204.0 33.0L0.0 33.0Z" stroke="#323232" stroke-width="2.0" stroke-dasharray="none" fill="#ccccff"/><g id="ProcessOnG1171" transform="matrix(1.0,0.0,0.0,1.0,10.0,8.375)"><text id="ProcessOnText1172" fill="#323232" font-weight="normal" font-style="normal" text-decoration="none" font-family="Arial,宋体" text-anchor="middle" font-size="13" x="91.0" y="13.325">新增上线部分</text></g></g><g id="ProcessOnG1173" transform="matrix(1.0,0.0,0.0,1.0,862.2427469889324,385.45742670694983)" opacity="1.0"><path id="ProcessOnPath1174" d="M0.0 0.0L204.0 0.0L204.0 33.0L0.0 33.0Z" stroke="#323232" stroke-width="2.0" stroke-dasharray="none" fill="#ff3333"/><g id="ProcessOnG1175" transform="matrix(1.0,0.0,0.0,1.0,10.0,8.375)"><text id="ProcessOnText1176" fill="#323232" font-weight="normal" font-style="normal" text-decoration="none" font-family="Arial,宋体" text-anchor="middle" font-size="13" x="91.0" y="13.325">新增但本次未上线</text></g></g></g></g></svg>